<?xml version="1.0" encoding="UTF-8"?>
<svg id="Layer_2" data-name="Layer 2" xmlns="http://www.w3.org/2000/svg" viewBox="0 0 971.83 678.22">
  <defs>
    <style>
      .cls-1 {
        fill: #676b32;
      }

      .cls-1, .cls-2, .cls-3, .cls-4 {
        stroke-width: 0px;
      }

      .cls-2 {
        fill: #ed783c;
      }

      .cls-3 {
        fill: #ffc537;
      }

      .cls-4 {
        fill: #00b6a5;
      }
    </style>
  </defs>
  <g id="Layer_1-2" data-name="Layer 1">
    <path class="cls-3" d="m314.59,107.24c-107.87,46.79-187.99,141.2-196.94,244.28-8.95,103.07,58.47,210.11,168.24,253.55,109.01,43.14,236.34,22.21,353.75.48,71.33-13.2,147.34-28.6,197.09-74.23,65.64-60.19,63.92-157.35,21.87-231.35-39.95-70.3-127.78-160.54-205.48-203.42-91.28-50.38-247.98-28.57-338.53,10.7Z"/>
    <path class="cls-4" d="m5.75,439.2c-27.43-101.33,45.77-223.78,166.33-238.14,65.49-7.8,133.68,15.31,197.38.16,108.67-25.85,149.36-146.31,251.4-187.39,87.7-35.31,196.4,1.12,261.05,62.85,93.42,89.2,113.81,225.55,62.26,336.85-51.55,111.3-168.24,196.16-301.16,234-223.8,63.71-574.4,23.93-637.27-208.32Z"/>
    <path class="cls-1" d="m703.75,65.78c-109.59-21.3-226.07,14.49-314.46,73.81-88.39,59.32-153.28,139.99-214.15,220.72-37.73,50.03-76,106.52-64.96,165.28,13.26,70.57,94.27,118.11,175,136.87,159.64,37.09,342.13-11.71,448.52-119.96,45.44-46.23,76.97-101.03,108.06-155.24,40.53-70.68,76.82-116.49,39.94-194.26-30.03-63.33-100.36-112.13-177.94-127.21Z"/>
    <path class="cls-2" d="m352.72,76.32C170.54,135.13,57.78,319.16,105,480.59c18.3,62.56,58.99,121.64,120.5,158.99,61.52,37.36,144.77,50.48,214.9,26.65,67.09-22.8,121.02-76.9,193.16-79.42,60.23-2.11,115.83,33.38,176.05,31.01,86.66-3.42,144.11-87.05,137.29-160.94-6.62-71.71-59.31-121.73-89.66-185.39-25.57-53.63-46.37-93.08-101.12-131.8-109.67-77.58-268.69-106.86-403.41-63.36Z"/>
  </g>
</svg>