<?xml version="1.0" encoding="UTF-8"?>
<svg id="Layer_2" data-name="Layer 2" xmlns="http://www.w3.org/2000/svg" viewBox="0 0 786.97 667.92">
  <defs>
    <style>
      .cls-1 {
        fill: #676b32;
      }

      .cls-1, .cls-2, .cls-3, .cls-4 {
        stroke-width: 0px;
      }

      .cls-2 {
        fill: #ed783c;
      }

      .cls-3 {
        fill: #ffc537;
      }

      .cls-4 {
        fill: #00b6a5;
      }
    </style>
  </defs>
  <g id="Layer_1-2" data-name="Layer 1">
    <path class="cls-3" d="m512.62,363.06c-39.77,20.19-69.31,60.94-72.62,105.42-3.3,44.48,21.56,90.68,62.04,109.42,40.2,18.62,87.14,9.59,130.44.21,26.3-5.7,54.33-12.34,72.67-32.03,24.2-25.98,23.57-67.91,8.06-99.85-14.73-30.34-47.12-69.29-75.77-87.79-33.66-21.74-91.44-12.33-124.82,4.62Z"/>
    <path class="cls-4" d="m2.12,189.55c-10.11-43.73,16.87-96.58,61.33-102.78,24.15-3.37,49.29,6.61,72.78.07,40.07-11.16,55.07-63.14,92.7-80.87,32.34-15.24,72.42.49,96.25,27.12,34.45,38.49,41.97,97.34,22.96,145.37-19.01,48.03-62.04,84.66-111.04,100.99-82.52,27.5-211.79,10.33-234.97-89.91Z"/>
    <path class="cls-1" d="m715.72,27.43c-40.41-9.19-83.36,6.25-115.95,31.85-32.59,25.6-56.52,60.42-78.96,95.26-13.91,21.59-28.02,45.97-23.95,71.33,4.89,30.46,34.76,50.97,64.52,59.07,58.86,16.01,126.15-5.06,165.38-51.77,16.75-19.95,28.38-43.6,39.84-67,14.94-30.5,28.32-50.27,14.73-83.84-11.07-27.33-37.01-48.39-65.61-54.9Z"/>
    <path class="cls-2" d="m139.04,408.15c-67.17,25.38-108.75,104.81-91.34,174.47,6.75,27,21.75,52.5,44.43,68.62,22.68,16.12,53.38,21.79,79.24,11.5,24.74-9.84,44.62-33.19,71.22-34.28,22.21-.91,42.71,14.41,64.91,13.38,31.95-1.48,53.14-37.57,50.62-69.46-2.44-30.95-21.87-52.54-33.06-80.01-9.43-23.14-17.1-40.17-37.28-56.88-40.44-33.48-99.07-46.12-148.75-27.35Z"/>
  </g>
</svg>